<?xml version="1.0" encoding="utf-8"?>
<!-- Generator: Adobe Illustrator 24.0.2, SVG Export Plug-In . SVG Version: 6.00 Build 0)  -->
<svg version="1.1" id="Capa_1" xmlns="http://www.w3.org/2000/svg" xmlns:xlink="http://www.w3.org/1999/xlink" x="0px" y="0px"
	 viewBox="0 0 512 423.9" style="enable-background:new 0 0 512 423.9;" xml:space="preserve">
<style type="text/css">
	.st0{fill:#7867A9;}
</style>
<title>heart-o</title>
<g>
	<g>
		<g>
			<path class="st0" d="M362.3,8.7L362.3,8.7c-41-0.2-79.9,17.7-106.3,49.1C229.8,26.3,190.7,8.2,149.7,8.7
				C72.8,8.7,10.5,71,10.5,148c0,131.8,230,260.5,239.3,265.4c3.7,2.5,8.6,2.5,12.5,0c9.3-5,239.3-131.8,239.3-265.4
				C501.5,71,439.2,8.7,362.3,8.7z M256,388.5C219.9,367.4,35.3,254.9,35.3,148c0-63.2,51.2-114.4,114.4-114.4
				c38.7-0.5,74.9,19,95.7,51.6c4.2,5.9,12.4,7.1,18.2,2.9c1.2-0.8,2.1-1.8,2.9-2.9C301.1,32.3,372,17.4,424.9,52.1
				c32.3,21.2,51.9,57.3,51.8,95.9C476.7,256.1,292.1,368,256,388.5z"/>
		</g>
	</g>
</g>
</svg>
