<svg id="idea" enable-background="new 0 0 300 300" height="512" viewBox="0 0 300 300" width="512" xmlns="http://www.w3.org/2000/svg" xmlns:xlink="http://www.w3.org/1999/xlink"><linearGradient id="SVGID_1_" gradientUnits="userSpaceOnUse" x1="60.345" x2="235.658" y1="262.002" y2="86.689"><stop offset="0" stop-color="#107eff"/><stop offset="1" stop-color="#8f16ff"/></linearGradient><g><path d="m70.484 171.172-2.828 2.828 2.828 2.828c1.562 1.562 1.562 4.094 0 5.656-.781.781-1.805 1.172-2.828 1.172s-2.047-.391-2.828-1.172l-2.828-2.828-2.828 2.828c-.781.781-1.805 1.172-2.828 1.172s-2.047-.391-2.828-1.172c-1.562-1.562-1.562-4.094 0-5.656l2.828-2.828-2.828-2.828c-1.562-1.562-1.562-4.094 0-5.656s4.094-1.562 5.656 0l2.828 2.828 2.828-2.828c1.562-1.562 4.094-1.562 5.656 0s1.563 4.093 0 5.656zm166.344-60.688c.781.781 1.805 1.172 2.828 1.172s2.047-.391 2.828-1.172c1.562-1.562 1.562-4.094 0-5.656l-2.828-2.828 2.828-2.828c1.562-1.562 1.562-4.094 0-5.656s-4.094-1.562-5.656 0l-2.828 2.828-2.828-2.828c-1.562-1.562-4.094-1.562-5.656 0s-1.562 4.094 0 5.656l2.828 2.828-2.828 2.828c-1.562 1.562-1.562 4.094 0 5.656.781.781 1.805 1.172 2.828 1.172s2.047-.391 2.828-1.172l2.828-2.828zm-156.828-33.955c2.501 0 4.529-2.028 4.529-4.529 0-2.502-2.028-4.53-4.529-4.53s-4.529 2.028-4.529 4.53c0 2.501 2.028 4.529 4.529 4.529zm168 96c2.501 0 4.529-2.028 4.529-4.529 0-2.502-2.028-4.53-4.529-4.53s-4.529 2.028-4.529 4.53c0 2.501 2.028 4.529 4.529 4.529zm-194-54.529c-6.617 0-12-5.383-12-12s5.383-12 12-12 12 5.383 12 12-5.383 12-12 12zm0-8c2.207 0 4-1.795 4-4s-1.793-4-4-4-4 1.795-4 4 1.793 4 4 4zm204 100c0 6.617-5.383 12-12 12s-12-5.383-12-12 5.383-12 12-12 12 5.383 12 12zm-8 0c0-2.205-1.793-4-4-4s-4 1.795-4 4 1.793 4 4 4 4-1.795 4-4zm-24 31.098v32.902c0 2.209-1.789 4-4 4h-144c-2.211 0-4-1.791-4-4v-32.902c0-16.369 9.469-31.25 24.121-37.91l.718-.326c-1.45-9.828-.664-17.968-.327-20.603-.626-.522-1.147-.991-1.422-1.319-1.188-1.418-1.387-3.752-.281-5.238.186-.25.451-.426.701-.616-.009-.299-.041-.593-.045-.894-.066-4.828-.117-8.055-.16-10.205-2.34-.127-4.59-.934-6.801-2.424-3.914-2.645-6.344-6.777-6.492-11.057-.137-3.836 1.254-7.469 3.914-10.227 1.707-1.77 3.789-3.029 6.074-3.705v-18.574c0-8.306 14.486-12.329 28.827-14.277-5.958-7.72-8.551-17.539-7.092-27.444 2.305-15.646 15.262-28.283 30.809-30.049 10.07-1.143 19.801 1.936 27.355 8.684 7.609 6.793 11.973 16.58 11.973 26.852 0 8.08-2.694 15.827-7.599 22.118 18.386 2.614 27.727 7.349 27.727 14.116v18.584c2.484.74 4.738 2.164 6.488 4.143 2.656 3.004 3.898 7.025 3.402 11.033-.492 4-3.004 7.77-6.719 10.082-2.129 1.324-4.336 2.041-6.598 2.143-.035 2.172-.074 5.385-.129 10.088-.001.104-.02.207-.021.311 2.204-.724 3.934.195 4.768 1.318 1.105 1.486.906 3.82-.281 5.238-.678.809-2.521 2.306-5.157 4.035.331 4.119.476 10.548-.605 17.882l.731.333c14.652 6.658 24.121 21.539 24.121 37.908zm-95.312-140.389c6.222 6.76 10.067 15.651 10.95 25.125 1.422.054 2.873.096 4.363.122v-22.3l-10.828-10.828c-1.562-1.562-1.562-4.094 0-5.656s4.094-1.562 5.656 0l9.171 9.172 9.172-9.172c1.562-1.562 4.094-1.562 5.656 0s1.562 4.094 0 5.656l-10.828 10.828v22.3c1.908-.033 3.774-.085 5.572-.163.897-9.386 4.777-18.304 11.053-25.207 4.672-5.139 7.246-11.822 7.246-18.82 0-7.996-3.391-15.607-9.301-20.885-5.828-5.207-13.352-7.592-21.121-6.701-12.008 1.363-22.016 11.148-23.801 23.268-1.261 8.552 1.305 17.032 7.04 23.261zm-30.793 54.937c1.09-.365 2.277-.248 3.27.322s1.695 1.539 1.926 2.66c.113.545.176.846.375 15.455.008.576.056 1.142.085 1.713 11.556 3.714 17.902-.87 24.571-5.727 4.426-3.223 9-6.555 14.773-6.555 2.578 0 5.027.758 7.105 2.15 2.078-1.393 4.527-2.15 7.105-2.15 5.773 0 10.348 3.332 14.773 6.555 5.814 4.234 11.387 8.259 20.372 6.767.071-.955.184-1.907.194-2.861.168-14.676.211-14.869.336-15.443.246-1.119.961-2.078 1.965-2.635.996-.557 2.191-.658 3.273-.275 1.816.643 3.242.475 4.926-.572 1.684-1.049 2.805-2.645 3.008-4.268.215-1.762-.301-3.449-1.457-4.756-1.136-1.288-2.776-2.026-4.495-2.026-2.211 0-4-1.791-4-4v-12.916c-14.426 6.663-43.708 6.916-48 6.916s-33.574-.253-48-6.916v12.916c0 2.209-1.789 4-4 4-1.645 0-3.176.65-4.316 1.834-1.141 1.182-1.738 2.74-1.68 4.389.062 1.707 1.203 3.51 2.977 4.709 1.937 1.306 3.371 1.238 4.914.714zm69.273 20.891c-3.699-2.695-6.895-5.021-10.062-5.021-1.535 0-2.953.727-3.898 1.992-1.508 2.027-4.906 2.027-6.414 0-.945-1.266-2.363-1.992-3.898-1.992-3.168 0-6.363 2.326-10.062 5.021-4.145 3.018-9.129 6.646-15.758 8.037 7.996 3.039 17.668 4.76 25.805.686 1.762-.881 2.984-1.889 3.734-3.082.73-1.166 2.012-1.873 3.387-1.873s2.656.707 3.387 1.873c.75 1.193 1.973 2.201 3.734 3.082 8.145 4.074 17.812 2.354 25.805-.686-6.631-1.39-11.616-5.019-15.76-8.037zm-63.055 10.792c-.297 5.675-.14 15.695 3.387 25.585 1.02 2.871 3.965 3.996 6.379 4.094 2.504.119 5.945-.873 7.34-3.971l2.059-4.578c.773-1.717 2.641-2.66 4.488-2.27 1.844.395 3.16 2.023 3.16 3.91 0 .02.031 3.109 1.066 8.27 1.727 8.584 9.703 11.631 16.008 11.631s14.281-3.047 16.008-11.631c1.035-5.16 1.066-8.25 1.066-8.281.012-1.881 1.332-3.508 3.172-3.896 1.844-.385 3.707.553 4.477 2.268l2.059 4.58c1.395 3.096 4.852 4.084 7.34 3.969 2.414-.098 5.359-1.223 6.379-4.092 3.154-8.848 3.604-17.795 3.469-23.533-6.781 3.301-15.426 6.236-24.117 6.236-4.859 0-9.734-.918-14.309-3.203-1.332-.666-2.512-1.406-3.543-2.229-1.031.822-2.211 1.562-3.543 2.229-14.426 7.206-31.865.81-42.345-5.088zm7.887 54.671v28h19.58l-4.239-42.401c-1.187-1.804-2.196-3.791-2.825-6.101-2.918 2.375-6.777 3.664-10.961 3.504-6.41-.26-11.621-3.863-13.594-9.402-.554-1.553-1.012-3.099-1.429-4.635-11.27 5.564-18.532 17.245-18.532 30.133v28.902h24v-28c0-2.209 1.789-4 4-4s4 1.791 4 4zm44.379 28 3.475-34.749c-3.74 1.823-7.878 2.749-11.854 2.749s-8.114-.927-11.854-2.75l3.475 34.75zm59.621-28.902c0-12.881-7.255-24.557-18.516-30.123-.417 1.531-.894 3.077-1.445 4.625-1.973 5.539-7.184 9.143-13.594 9.402-4.203.18-8.039-1.127-10.961-3.502-.629 2.311-1.639 4.297-2.825 6.102l-4.239 42.398h19.58v-28c0-2.209 1.789-4 4-4s4 1.791 4 4v28h24zm-46-81.098c2.209 0 4-1.791 4-4s-1.791-4-4-4-4 1.791-4 4 1.791 4 4 4zm-40 0c2.209 0 4-1.791 4-4s-1.791-4-4-4-4 1.791-4 4 1.791 4 4 4zm18-118c2.211 0 4-1.791 4-4v-12c0-2.209-1.789-4-4-4s-4 1.791-4 4v12c0 2.209 1.789 4 4 4zm16 0c1.023 0 2.047-.391 2.828-1.172l4-4c1.562-1.562 1.562-4.094 0-5.656s-4.094-1.562-5.656 0l-4 4c-1.562 1.562-1.562 4.094 0 5.656.781.781 1.805 1.172 2.828 1.172zm-34.828-1.172c.781.781 1.805 1.172 2.828 1.172s2.047-.391 2.828-1.172c1.562-1.562 1.562-4.094 0-5.656l-4-4c-1.562-1.562-4.094-1.562-5.656 0s-1.562 4.094 0 5.656z" fill="url(#SVGID_1_)"/></g></svg>