<?xml version="1.0" encoding="utf-8"?>
<!-- Generator: Adobe Illustrator 24.0.2, SVG Export Plug-In . SVG Version: 6.00 Build 0)  -->
<svg version="1.1" id="Capa_1" xmlns="http://www.w3.org/2000/svg" xmlns:xlink="http://www.w3.org/1999/xlink" x="0px" y="0px"
	 viewBox="0 0 511 511" style="enable-background:new 0 0 511 511;" xml:space="preserve">
<style type="text/css">
	.st0{fill:#7A22B1;}
</style>
<g id="surface1">
	<path class="st0" d="M389.9,190.6C389.9,117,330,57,256.3,57c-73.7,0-133.6,59.9-133.6,133.6c0,73.7,59.9,133.6,133.6,133.6
		C330,324.2,389.9,264.3,389.9,190.6z M256.3,309.2c-65.4,0-118.6-53.2-118.6-118.6c0-65.4,53.2-118.6,118.6-118.6
		s118.6,53.2,118.6,118.6C374.9,256,321.7,309.2,256.3,309.2z"/>
	<path class="st0" d="M349.4,161.3c-1.4-4.4-5.4-7.3-10-7.3h-55.8l-17.2-53c-1.4-4.3-5.4-7.3-10-7.3c-4.6,0-8.6,2.9-10,7.3
		l-17.2,53.1h-55.8c-4.6,0-8.6,2.9-10,7.3s0.1,9.1,3.8,11.8l45.1,32.8l-17.2,53c-1.4,4.3,0.1,9.1,3.8,11.8c3.7,2.7,8.7,2.7,12.4,0
		l45.1-32.8l45.1,32.8c1.9,1.3,4,2,6.2,2s4.3-0.7,6.2-2c3.7-2.7,5.2-7.4,3.8-11.8l-17.2-53l45.1-32.8
		C349.2,170.4,350.8,165.7,349.4,161.3z M289,195.7c-3.7,2.7-5.2,7.4-3.8,11.8l14,43.1l-36.7-26.6c-1.9-1.3-4-2-6.2-2
		c-2.2,0-4.3,0.7-6.2,2l-36.7,26.6l14-43.1c1.4-4.3-0.1-9.1-3.8-11.8L187,169h45.3c4.6,0,8.6-2.9,10-7.3l14-43.1l14,43.1
		c1.4,4.3,5.4,7.3,10,7.3h45.3L289,195.7z"/>
	<path class="st0" d="M455.2,438.3L385.1,315l12.3-3.9c14.8-4.7,24.6-18.9,23.8-34.5l-0.9-17.8c-0.3-5.4,1.7-10.7,5.5-14.6
		l12.5-12.7c10.9-11.1,13-28.2,5-41.6l-9.1-15.4c-2.8-4.7-3.4-10.3-1.9-15.5l5.2-17.1c4.5-14.9-1.6-31-14.8-39.1l-15.2-9.4
		c-4.6-2.8-7.8-7.5-8.8-12.8l-3.4-17.5c-2.9-15.3-15.8-26.7-31.3-27.8l-17.8-1.2c-5.4-0.4-10.4-3-13.8-7.2l-11.1-14
		c-9.7-12.2-26.4-16.3-40.6-10l-16.4,7.2c0,0,0,0,0,0c-4.9,2.2-10.6,2.2-15.6,0l-16.4-7.2c-14.2-6.3-31-2.1-40.6,10l-11.1,14
		c-3.4,4.2-8.4,6.9-13.8,7.2l-17.8,1.2c-15.5,1.1-28.4,12.5-31.3,27.8l-3.4,17.5c-1,5.3-4.2,10-8.8,12.8L90,102.9
		C76.8,111,70.7,127.1,75.2,142l5.2,17.1c1.6,5.2,0.9,10.8-1.9,15.5l-9.1,15.4c-7.9,13.4-5.9,30.5,5,41.6l12.5,12.7
		c3.8,3.9,5.8,9.2,5.5,14.6l-0.9,17.8c-0.8,15.5,9,29.7,23.8,34.5l12.3,3.9L57.4,438.3c-2.1,3.7-2,8.3,0.2,11.9s6.3,5.8,10.6,5.6
		l58.7-3l27.3,52c2,3.8,5.9,6.2,10.2,6.3c0.1,0,0.1,0,0.2,0c4.2,0,8.1-2.3,10.2-5.9l71.4-125.4c3.3,1,6.7,1.6,10.2,1.6
		c3.4,0,6.9-0.5,10.2-1.6l71.4,125.4c2.1,3.7,6,5.9,10.2,5.9c0.1,0,0.1,0,0.2,0c4.3-0.1,8.2-2.5,10.2-6.3l27.3-52l58.7,3
		c4.3,0.2,8.3-1.9,10.6-5.6C457.3,446.6,457.4,442,455.2,438.3z M164.7,492.5l-24.9-47.4l14.7-25.8c2-3.6,0.8-8.2-2.8-10.2
		c-3.6-2-8.2-0.8-10.2,2.8l-14.7,25.8l-53.4,2.8l67.5-118.4c1.3,1.4,2.3,3,3.2,4.8l7.5,16.2c3.9,8.4,10.9,14.7,19.1,17.8l-11.7,20.5
		c-2,3.6-0.8,8.2,2.8,10.2c1.2,0.7,2.4,1,3.7,1c2.6,0,5.1-1.4,6.5-3.8l14.8-26c0.6-0.1,1.2-0.2,1.8-0.3l17.6-3.1
		c5.3-0.9,10.8,0.4,15.1,3.7l11.9,9.1L164.7,492.5z M266.1,363.6C266,363.6,266,363.7,266.1,363.6c-0.1,0.1-0.2,0.1-0.2,0.1
		c-5.9,3.4-13.2,3.4-19.1,0c0,0-0.1-0.1-0.1-0.1c0,0,0,0-0.1,0c-0.7-0.4-1.4-0.9-2.1-1.4l-14.2-10.9c-6-4.6-13.4-7.1-21-7.1
		c-2,0-3.9,0.2-5.9,0.5l-17.6,3.1c-1.1,0.2-2.3,0.3-3.4,0.3c-0.1,0-0.2,0-0.3,0c-7.3-0.1-14.1-4.4-17.2-11.2l-7.5-16.2
		c-3.2-6.9-8.6-12.6-15.3-16.1c0,0,0,0,0,0c0,0-0.1,0-0.1-0.1c-0.2-0.1-0.3-0.2-0.5-0.2c0,0-0.1,0-0.1-0.1c-1.5-0.7-3-1.4-4.6-1.9
		l-17-5.5c-8.3-2.7-13.9-10.7-13.4-19.4l0.9-17.8c0.5-9.6-3.1-19-9.8-25.8L85.1,221c-6.1-6.2-7.3-15.9-2.8-23.4l9.1-15.4
		c4.9-8.3,6.1-18.3,3.3-27.4l-5.2-17.1c-2.5-8.4,0.9-17.5,8.4-22.1l15.2-9.4c8.2-5,13.9-13.3,15.7-22.7l3.4-17.5
		c1.6-8.6,8.9-15,17.7-15.6l17.8-1.2c9.6-0.7,18.5-5.3,24.5-12.8l11.1-14c5.5-6.9,14.9-9.2,22.9-5.6l16.4,7.2
		c8.8,3.9,18.9,3.9,27.6,0l16.4-7.2c8-3.5,17.4-1.2,22.9,5.6l11.1,14c6,7.5,14.9,12.2,24.5,12.8l17.8,1.2c8.7,0.6,16,7,17.7,15.6
		l3.4,17.6c1.8,9.4,7.5,17.7,15.7,22.7l15.2,9.4c7.5,4.6,10.9,13.7,8.4,22.1l-5.2,17.1c-2.8,9.2-1.6,19.2,3.3,27.4l9.1,15.4
		c4.5,7.5,3.3,17.2-2.8,23.4l-12.5,12.7c-6.7,6.8-10.3,16.3-9.8,25.8l0.9,17.8c0.5,8.8-5.1,16.7-13.4,19.4l-17,5.5
		c-1.6,0.5-3.1,1.1-4.6,1.9c0,0-0.1,0-0.1,0.1c-0.2,0.1-0.3,0.2-0.5,0.2c0,0-0.1,0-0.1,0.1c0,0,0,0,0,0c-6.7,3.5-12.1,9.1-15.3,16.1
		l-7.5,16.2c-3.1,6.8-9.9,11.1-17.2,11.2c-0.1,0-0.2,0-0.3,0c-1.1,0-2.2-0.1-3.4-0.3l-17.6-3.1c-9.5-1.7-19.2,0.8-26.8,6.6
		l-14.2,10.9C267.5,362.8,266.8,363.2,266.1,363.6z M385.9,437.7l-14.8-26c-2-3.6-6.6-4.8-10.2-2.8c-3.6,2-4.8,6.6-2.8,10.2l14.8,26
		L348,492.5l-68.4-120.2l11.9-9.1c4.3-3.3,9.8-4.7,15.1-3.7l17.6,3.1c0.6,0.1,1.2,0.2,1.8,0.3l14.8,26c1.4,2.4,3.9,3.8,6.5,3.8
		c1.3,0,2.5-0.3,3.7-1c3.6-2,4.8-6.6,2.8-10.2l-11.7-20.5c8.3-3.1,15.2-9.3,19.1-17.8l7.5-16.2c0.8-1.8,1.9-3.4,3.2-4.8l67.5,118.4
		L385.9,437.7z"/>
</g>
</svg>
