<svg id="sketch" enable-background="new 0 0 300 300" height="512" viewBox="0 0 300 300" width="512" xmlns="http://www.w3.org/2000/svg" xmlns:xlink="http://www.w3.org/1999/xlink"><linearGradient id="SVGID_1_" gradientUnits="userSpaceOnUse" x1="42.418" x2="257.439" y1="256.585" y2="41.564"><stop offset="0" stop-color="#107eff"/><stop offset="1" stop-color="#8f16ff"/></linearGradient><g><path d="m142.449 66.828 2.828-2.828-2.828-2.828c-1.562-1.562-1.562-4.094 0-5.656s4.094-1.562 5.656 0l2.828 2.828 2.828-2.828c1.562-1.562 4.094-1.562 5.656 0s1.562 4.094 0 5.656l-2.827 2.828 2.828 2.828c1.562 1.562 1.562 4.094 0 5.656-.781.781-1.805 1.172-2.828 1.172s-2.047-.391-2.828-1.172l-2.828-2.828-2.828 2.828c-.781.781-1.805 1.172-2.828 1.172s-2.047-.391-2.828-1.172c-1.563-1.562-1.563-4.094-.001-5.656zm-33.515 7.701c2.501 0 4.53-2.028 4.53-4.529 0-2.502-2.028-4.529-4.53-4.529s-4.53 2.027-4.53 4.529c0 2.501 2.028 4.529 4.53 4.529zm-54-26.529c0-6.617 5.383-12 12-12s12 5.383 12 12-5.383 12-12 12-12-5.383-12-12zm8 0c0 2.207 1.793 4 4 4s4-1.793 4-4-1.793-4-4-4-4 1.793-4 4zm198.031 16.887-26.213 26.213c.07.298.181.58.181.899v12h4.234c6.488 0 11.766 5.277 11.766 11.766v128.469c0 6.488-5.277 11.766-11.766 11.766h-136.233v4c0 1.484-.824 2.848-2.137 3.539-.586.309-1.227.461-1.863.461-.793 0-1.582-.234-2.262-.703l-11.738-8.047-11.738 8.047c-1.227.844-2.809.934-4.125.242-1.312-.691-2.137-2.055-2.137-3.539v-4h-20.235c-6.488 0-11.766-5.277-11.766-11.766v-128.469c0-6.488 5.277-11.766 11.766-11.766h4.234v-11.999c0-2.211 1.789-4 4-4h143.324l42.91-42.91c5.293-5.289 14.512-5.285 19.797 0 2.645 2.641 4.102 6.156 4.102 9.898 0 3.738-1.457 7.254-4.101 9.899zm-24.039 12.727-8.485-8.485-42.428 42.428 8.486 8.486zm5.657-5.657 2.828-2.829-8.485-8.484-2.828 2.828zm-183.649 24.043v128h49.578c6.519 0 17.099 1.293 25.979 4h4.443v-132zm8 152v-4h-12c-2.211 0-4-1.789-4-4v-128h-4.234c-2.078 0-3.766 1.688-3.766 3.766v128.469c0 2.078 1.688 3.766 3.766 3.766h20.234zm28 4.406v-20.406h-20v20.406l7.738-5.305c1.359-.938 3.164-.938 4.523 0zm8-4.406h30.339c-7.953-2.593-18.423-4-24.761-4h-5.578zm132-136v128c0 2.211-1.789 4-4 4h-61.578c-6.345 0-12.538 1.378-18.228 4h88.041c2.078 0 3.766-1.688 3.766-3.766v-128.469c0-2.078-1.688-3.766-3.766-3.766h-4.235zm-8-13.08-28.773 28.775c-.25.25-.535.469-.844.645l-33.402 19.16c-.625.359-1.309.531-1.992.531-1.035 0-2.062-.402-2.832-1.176-1.277-1.281-1.535-3.262-.629-4.828l19.266-33.309c.176-.301.387-.574.633-.82l11.897-11.898h-43.324v132h2.513c6.271-2.625 13.012-4 19.908-4h57.578v-125.08zm30.132-43.932c0-1.602-.625-3.109-1.758-4.242-2.266-2.266-6.219-2.266-8.484 0l-4.242 4.242 8.485 8.484 4.242-4.242c1.132-1.133 1.757-2.64 1.757-4.242zm-61.492 98.539 17.832 17.832c1.773 1.773 2.75 4.133 2.75 6.641s-.977 4.867-2.75 6.641l-17.832 17.832c-1.773 1.773-4.133 2.75-6.641 2.75s-4.867-.977-6.641-2.75l-17.832-17.832c-1.773-1.773-2.75-4.133-2.75-6.641s.977-4.867 2.75-6.641l17.832-17.832c3.548-3.547 9.735-3.547 13.282 0zm12.176 23.488-17.832-17.832c-.273-.27-.629-.406-.984-.406s-.711.137-.984.406l-17.832 17.832c-.543.543-.543 1.426 0 1.969l17.832 17.832c.547.539 1.422.539 1.969 0l17.832-17.832c.542-.543.542-1.426-.001-1.969zm-136.258 21.02c-.723-1.215-.746-2.723-.062-3.961l14.713-26.751c-6.946-4.829-11.209-12.777-11.209-21.323 0-14.336 11.664-26 26-26s26 11.664 26 26c0 11.299-7.108 20.996-17.433 24.553l12.937 23.521c.684 1.238.66 2.746-.062 3.961-.719 1.219-2.027 1.965-3.441 1.965h-44c-1.415 0-2.724-.746-3.443-1.965zm18.514-37.735 3.424-6.226c1.406-2.562 5.602-2.562 7.008 0l5.094 9.262c7.848-2.058 13.402-9.041 13.402-17.336 0-9.926-8.074-18-18-18s-18 8.074-18 18c0 5.634 2.66 10.922 7.072 14.3zm-8.307 31.7h30.469l-15.234-27.699z" fill="url(#SVGID_1_)"/></g></svg>